<svg width="157" height="163" viewBox="0 0 157 163" fill="none" xmlns="http://www.w3.org/2000/svg">
<g filter="url(#filter0_d_56_32)">
<path d="M44.1806 69.538C44.0314 68.2785 43.4266 67.3008 42.3659 66.6048C41.3053 65.9087 40.0044 65.5607 38.4632 65.5607C37.3364 65.5607 36.3503 65.743 35.5051 66.1076C34.6683 66.4722 34.0137 66.9735 33.5414 67.6115C33.0774 68.2495 32.8453 68.9745 32.8453 69.7866C32.8453 70.466 33.0069 71.0502 33.3301 71.5391C33.6615 72.0196 34.0841 72.4215 34.5978 72.7447C35.1116 73.0595 35.6502 73.3205 36.2136 73.5277C36.777 73.7266 37.2949 73.8881 37.7672 74.0124L40.3525 74.7085C41.0153 74.8825 41.7528 75.1228 42.5648 75.4293C43.3851 75.7359 44.1681 76.1544 44.9139 76.6847C45.6679 77.2067 46.2894 77.8778 46.7782 78.6982C47.2671 79.5185 47.5115 80.5252 47.5115 81.7184C47.5115 83.0939 47.1511 84.3368 46.4302 85.4471C45.7176 86.5574 44.6736 87.4399 43.2981 88.0945C41.9309 88.7491 40.2696 89.0763 38.3141 89.0763C36.4912 89.0763 34.9127 88.7822 33.5787 88.1939C32.2529 87.6056 31.2089 86.7853 30.4466 85.733C29.6925 84.6806 29.2658 83.4585 29.1664 82.0664H32.3482C32.431 83.0276 32.7542 83.823 33.3176 84.4528C33.8894 85.0742 34.6103 85.5382 35.4803 85.8448C36.3586 86.1431 37.3032 86.2923 38.3141 86.2923C39.4907 86.2923 40.5472 86.1017 41.4835 85.7205C42.4198 85.3311 43.1614 84.7925 43.7083 84.1048C44.2551 83.4087 44.5286 82.5967 44.5286 81.6687C44.5286 80.8235 44.2924 80.1358 43.8201 79.6055C43.3478 79.0752 42.7264 78.6443 41.9558 78.3129C41.1852 77.9814 40.3525 77.6914 39.4576 77.4428L36.3255 76.5479C34.3368 75.9762 32.7625 75.16 31.6025 74.0994C30.4424 73.0388 29.8624 71.6509 29.8624 69.9357C29.8624 68.5105 30.2477 67.2676 31.0183 66.207C31.7972 65.1381 32.8412 64.3095 34.1504 63.7212C35.4679 63.1246 36.9386 62.8263 38.5627 62.8263C40.2033 62.8263 41.6616 63.1205 42.9377 63.7088C44.2137 64.2888 45.2246 65.0843 45.9703 66.0952C46.7244 67.1061 47.1221 68.2537 47.1635 69.538H44.1806ZM56.507 88.6289L50.6903 69.538H53.7726L57.8991 84.1545H58.0979L62.1746 69.538H65.3067L69.3337 84.1048H69.5326L73.659 69.538H76.7414L70.9246 88.6289H68.0411L63.865 73.9627H63.5667L59.3905 88.6289H56.507ZM86.2371 89.0763C85.0274 89.0763 83.9295 88.8485 82.9434 88.3928C81.9574 87.9287 81.1744 87.2617 80.5944 86.3917C80.0144 85.5134 79.7243 84.4528 79.7243 83.2099C79.7243 82.1161 79.9398 81.2295 80.3706 80.5501C80.8015 79.8623 81.3774 79.3237 82.0983 78.9343C82.8192 78.5449 83.6146 78.2549 84.4846 78.0643C85.363 77.8654 86.2454 77.708 87.132 77.592C88.2921 77.4428 89.2325 77.331 89.9534 77.2564C90.6826 77.1735 91.2129 77.0368 91.5443 76.8462C91.884 76.6557 92.0539 76.3242 92.0539 75.8519V75.7525C92.0539 74.5262 91.7183 73.5733 91.0471 72.8938C90.3843 72.2144 89.3775 71.8746 88.0269 71.8746C86.6266 71.8746 85.5287 72.1812 84.7332 72.7944C83.9378 73.4076 83.3785 74.0621 83.0553 74.7582L80.2712 73.7638C80.7684 72.6038 81.4313 71.7006 82.2599 71.0543C83.0967 70.3997 84.0082 69.944 84.9942 69.6871C85.9885 69.422 86.9663 69.2894 87.9275 69.2894C88.5406 69.2894 89.2449 69.364 90.0404 69.5131C90.8441 69.654 91.6189 69.9482 92.3646 70.3956C93.1186 70.843 93.7442 71.5183 94.2414 72.4215C94.7385 73.3247 94.9871 74.5344 94.9871 76.0508V88.6289H92.0539V86.0437H91.9047C91.7059 86.458 91.3744 86.9013 90.9104 87.3736C90.4464 87.8459 89.8291 88.2478 89.0585 88.5792C88.2879 88.9106 87.3474 89.0763 86.2371 89.0763ZM86.6846 86.4414C87.8446 86.4414 88.8224 86.2135 89.6178 85.7578C90.4215 85.3021 91.0264 84.7138 91.4324 83.9929C91.8467 83.272 92.0539 82.5138 92.0539 81.7184V79.0337C91.9296 79.1829 91.6562 79.3196 91.2336 79.4439C90.8193 79.5599 90.3387 79.6635 89.7918 79.7546C89.2532 79.8375 88.7271 79.9121 88.2133 79.9783C87.7079 80.0363 87.2977 80.0861 86.9829 80.1275C86.2206 80.2269 85.508 80.3885 84.8451 80.6122C84.1905 80.8277 83.6602 81.1549 83.2542 81.5941C82.8564 82.025 82.6576 82.6133 82.6576 83.359C82.6576 84.3782 83.0346 85.1488 83.7886 85.6708C84.5509 86.1845 85.5162 86.4414 86.6846 86.4414ZM100.341 95.788V69.538H103.175V72.5707H103.523C103.738 72.2392 104.036 71.8166 104.418 71.3029C104.807 70.7809 105.362 70.3169 106.083 69.9109C106.812 69.4966 107.798 69.2894 109.041 69.2894C110.649 69.2894 112.066 69.6913 113.292 70.495C114.518 71.2988 115.475 72.4381 116.163 73.913C116.851 75.3879 117.195 77.128 117.195 79.1332C117.195 81.1549 116.851 82.9074 116.163 84.3906C115.475 85.8655 114.522 87.009 113.304 87.821C112.086 88.6248 110.682 89.0266 109.091 89.0266C107.865 89.0266 106.883 88.8236 106.145 88.4176C105.408 88.0033 104.84 87.5352 104.442 87.0131C104.045 86.4828 103.738 86.0437 103.523 85.6957H103.274V95.788H100.341ZM103.224 79.0835C103.224 80.5252 103.436 81.7971 103.858 82.8991C104.281 83.9929 104.898 84.8505 105.71 85.4719C106.522 86.0851 107.517 86.3917 108.693 86.3917C109.92 86.3917 110.943 86.0685 111.763 85.4222C112.592 84.7676 113.213 83.8893 113.627 82.7873C114.05 81.677 114.261 80.4424 114.261 79.0835C114.261 77.7411 114.054 76.5314 113.64 75.4542C113.234 74.3687 112.617 73.5111 111.788 72.8814C110.968 72.2434 109.936 71.9244 108.693 71.9244C107.5 71.9244 106.497 72.2268 105.685 72.8317C104.873 73.4283 104.26 74.2652 103.846 75.3423C103.432 76.4112 103.224 77.6583 103.224 79.0835Z" fill="#5ADD77"/>
<path d="M126.751 88.6897L27.1911 90.2247C26.5616 90.2344 26.0554 90.7794 26.0661 91.4357L26.2126 100.385C26.2234 101.042 26.7472 101.571 27.3767 101.561L113.96 100.226L93.7627 127.841C93.1888 128.626 93.7372 129.781 94.6958 129.766L105.068 129.606C105.769 129.595 106.422 129.257 106.856 128.668L130.483 96.3607C132.792 93.1919 130.585 88.6306 126.751 88.6897ZM129.622 53.4345L43.0389 54.7694L63.2365 27.1546C63.8104 26.3699 63.262 25.2146 62.3034 25.2294L51.9311 25.3893C51.2301 25.4001 50.5774 25.7384 50.1434 26.327L26.5166 58.6348C24.2073 61.8036 26.4142 66.3649 30.2341 66.306L129.808 64.7707C130.438 64.761 130.944 64.2161 130.933 63.5598L130.787 54.6101C130.776 53.9538 130.252 53.4248 129.622 53.4345Z" fill="#5ADD77"/>
</g>
<defs>
<filter id="filter0_d_56_32" x="0" y="0" width="157" height="163" filterUnits="userSpaceOnUse" color-interpolation-filters="sRGB">
<feFlood flood-opacity="0" result="BackgroundImageFix"/>
<feColorMatrix in="SourceAlpha" type="matrix" values="0 0 0 0 0 0 0 0 0 0 0 0 0 0 0 0 0 0 127 0" result="hardAlpha"/>
<feOffset dy="4"/>
<feGaussianBlur stdDeviation="2"/>
<feComposite in2="hardAlpha" operator="out"/>
<feColorMatrix type="matrix" values="0 0 0 0 0 0 0 0 0 0 0 0 0 0 0 0 0 0 0.25 0"/>
<feBlend mode="normal" in2="BackgroundImageFix" result="effect1_dropShadow_56_32"/>
<feBlend mode="normal" in="SourceGraphic" in2="effect1_dropShadow_56_32" result="shape"/>
</filter>
</defs>
</svg>
