<svg width="33" height="33" viewBox="0 0 33 33" fill="none" xmlns="http://www.w3.org/2000/svg">
<g clip-path="url(#clip0_119_117)">
<path d="M18.15 2.75391C16.609 2.75391 15.1025 3.23327 13.8212 4.13137C12.5398 5.02947 11.5412 6.30598 10.9514 7.79947C10.3617 9.29295 10.2074 10.9363 10.508 12.5218C10.8087 14.1073 11.5508 15.5637 12.6405 16.7067C13.7301 17.8498 15.1185 18.6282 16.6299 18.9436C18.1414 19.259 19.708 19.0971 21.1317 18.4785C22.5555 17.8599 23.7724 16.8123 24.6285 15.4682C25.4847 14.1241 25.9417 12.5438 25.9417 10.9273C25.9417 8.75957 25.1208 6.68064 23.6595 5.14783C22.1983 3.61503 20.2165 2.75391 18.15 2.75391V2.75391ZM18.15 15.8313C17.2254 15.8313 16.3215 15.5437 15.5527 15.0048C14.7839 14.466 14.1847 13.7001 13.8309 12.804C13.477 11.9079 13.3844 10.9218 13.5648 9.97055C13.7452 9.01927 14.1905 8.14545 14.8443 7.45961C15.4981 6.77377 16.3311 6.30671 17.238 6.11749C18.1448 5.92826 19.0848 6.02538 19.939 6.39655C20.7933 6.76773 21.5234 7.39629 22.0371 8.20275C22.5508 9.00921 22.825 9.95736 22.825 10.9273C22.825 12.2279 22.3325 13.4753 21.4557 14.395C20.579 15.3146 19.3899 15.8313 18.15 15.8313V15.8313ZM32.175 33.8127V32.1781C32.175 29.1433 31.0257 26.2328 28.98 24.0868C26.9343 21.9409 24.1597 20.7353 21.2667 20.7353H15.0333C12.1403 20.7353 9.36569 21.9409 7.31998 24.0868C5.27427 26.2328 4.125 29.1433 4.125 32.1781V33.8127H7.24167V32.1781C7.24167 30.0103 8.06257 27.9314 9.52379 26.3986C10.985 24.8658 12.9669 24.0047 15.0333 24.0047H21.2667C23.3331 24.0047 25.315 24.8658 26.7762 26.3986C28.2374 27.9314 29.0583 30.0103 29.0583 32.1781V33.8127H32.175Z" fill="white"/>
</g>
<defs>
<clipPath id="clip0_119_117">
<rect width="33" height="33" fill="white"/>
</clipPath>
</defs>
</svg>
