<svg width="33" height="33" viewBox="0 0 33 33" fill="none" xmlns="http://www.w3.org/2000/svg">
<g clip-path="url(#clip0_117_71)">
<path d="M24.2178 21.3346C26.2149 18.6094 27.1094 15.2306 26.7223 11.8742C26.3352 8.51781 24.6951 5.43135 22.13 3.23229C19.565 1.03323 16.2643 -0.116232 12.8881 0.0138559C9.51199 0.143944 6.30947 1.54399 3.92126 3.93391C1.53306 6.32382 0.135303 9.52734 0.00763035 12.9036C-0.120042 16.2798 1.03179 19.5797 3.23268 22.1432C5.43357 24.7066 8.52121 26.3445 11.8779 26.7292C15.2345 27.1139 18.6127 26.217 21.3365 24.218H21.3344C21.3963 24.3005 21.4623 24.3788 21.5365 24.4551L29.4771 32.3958C29.8639 32.7828 30.3885 33.0003 30.9356 33.0005C31.4828 33.0007 32.0075 32.7835 32.3946 32.3968C32.7816 32.0101 32.9991 31.4854 32.9993 30.9383C32.9995 30.3912 32.7823 29.8664 32.3956 29.4794L24.455 21.5388C24.3812 21.4641 24.3019 21.3952 24.2178 21.3325V21.3346ZM24.7499 13.4063C24.7499 14.896 24.4565 16.3711 23.8864 17.7474C23.3163 19.1237 22.4808 20.3742 21.4274 21.4276C20.374 22.4809 19.1235 23.3165 17.7472 23.8866C16.3709 24.4567 14.8958 24.7501 13.4061 24.7501C11.9165 24.7501 10.4414 24.4567 9.06508 23.8866C7.6888 23.3165 6.43827 22.4809 5.38491 21.4276C4.33154 20.3742 3.49597 19.1237 2.92589 17.7474C2.35581 16.3711 2.0624 14.896 2.0624 13.4063C2.0624 10.3978 3.25754 7.51246 5.38491 5.38509C7.51227 3.25773 10.3976 2.06259 13.4061 2.06259C16.4147 2.06259 19.3 3.25773 21.4274 5.38509C23.5548 7.51246 24.7499 10.3978 24.7499 13.4063V13.4063Z" fill="white"/>
</g>
<defs>
<clipPath id="clip0_117_71">
<rect width="33" height="33" fill="white"/>
</clipPath>
</defs>
</svg>
