<svg width="34" height="34" viewBox="0 0 34 34" fill="none" xmlns="http://www.w3.org/2000/svg">
<g clip-path="url(#clip0_117_80)">
<path d="M30.7042 26.2833C29.7935 25.4714 28.9961 24.5406 28.3336 23.5161C27.6104 22.1018 27.1769 20.5573 27.0586 18.9733V14.3077C27.0649 11.8197 26.1624 9.41501 24.5207 7.54548C22.879 5.67595 20.6111 4.47026 18.1431 4.15495V2.93661C18.1431 2.60222 18.0102 2.28152 17.7738 2.04507C17.5373 1.80862 17.2166 1.67578 16.8822 1.67578C16.5479 1.67578 16.2272 1.80862 15.9907 2.04507C15.7543 2.28152 15.6214 2.60222 15.6214 2.93661V4.17384C13.1755 4.51188 10.9351 5.72486 9.31491 7.5881C7.69477 9.45135 6.80477 11.8386 6.80975 14.3077V18.9733C6.69146 20.5573 6.25798 22.1018 5.53475 23.5161C4.88391 24.5383 4.09938 25.4689 3.20197 26.2833C3.10123 26.3718 3.02049 26.4807 2.96512 26.6029C2.90975 26.725 2.88103 26.8575 2.88086 26.9916V28.2761C2.88086 28.5265 2.98036 28.7668 3.15748 28.9439C3.3346 29.121 3.57482 29.2205 3.8253 29.2205H30.0809C30.3313 29.2205 30.5716 29.121 30.7487 28.9439C30.9258 28.7668 31.0253 28.5265 31.0253 28.2761V26.9916C31.0251 26.8575 30.9964 26.725 30.941 26.6029C30.8857 26.4807 30.8049 26.3718 30.7042 26.2833ZM4.8453 27.3316C5.72402 26.4828 6.4977 25.5315 7.14975 24.4983C8.06077 22.7902 8.59232 20.9056 8.70808 18.9733V14.3077C8.67063 13.2009 8.85629 12.0978 9.25401 11.0642C9.65174 10.0306 10.2534 9.08758 11.0231 8.29133C11.7929 7.49509 12.715 6.86188 13.7346 6.42943C14.7542 5.99697 15.8503 5.77411 16.9578 5.77411C18.0653 5.77411 19.1615 5.99697 20.181 6.42943C21.2006 6.86188 22.1227 7.49509 22.8925 8.29133C23.6622 9.08758 24.2639 10.0306 24.6616 11.0642C25.0593 12.0978 25.245 13.2009 25.2075 14.3077V18.9733C25.3233 20.9056 25.8548 22.7902 26.7659 24.4983C27.4179 25.5315 28.1916 26.4828 29.0703 27.3316H4.8453Z" fill="white"/>
<path d="M16.9999 32.376C17.5948 32.3623 18.1657 32.1386 18.6117 31.7445C19.0576 31.3505 19.3498 30.8114 19.4365 30.2227H14.4688C14.558 30.8274 14.8638 31.3791 15.3294 31.7752C15.795 32.1713 16.3886 32.3848 16.9999 32.376V32.376Z" fill="white"/>
</g>
<defs>
<clipPath id="clip0_117_80">
<rect width="34" height="34" fill="white"/>
</clipPath>
</defs>
</svg>
