<svg width="168" height="152" viewBox="0 0 168 152" fill="none" xmlns="http://www.w3.org/2000/svg"> <!--logo-->
<g filter="url(#filter0_d_56_257)">
<path d="M46.1105 65.5104C45.9674 64.2502 45.3672 63.2696 44.31 62.5684C43.2528 61.8673 41.9536 61.513 40.4124 61.5056C39.2855 61.5002 38.2986 61.6777 37.4517 62.0382C36.6131 62.3988 35.9561 62.8969 35.4807 63.5326C35.0136 64.1684 34.7781 64.8923 34.7742 65.7043C34.7709 66.3838 34.9297 66.9687 35.2505 67.4591C35.5796 67.9413 36.0002 68.3452 36.5124 68.6708C37.0246 68.9882 37.5619 69.2518 38.1244 69.4617C38.6868 69.6632 39.2039 69.8273 39.6756 69.9539L42.2575 70.6623C42.9195 70.8395 43.6558 71.0834 44.4663 71.3939C45.2852 71.7044 46.0662 72.1266 46.8093 72.6605C47.5608 73.1862 48.179 73.8603 48.664 74.683C49.1489 75.5056 49.3885 76.5135 49.3827 77.7067C49.3761 79.0822 49.0096 80.3233 48.2834 81.4301C47.5655 82.537 46.5172 83.4144 45.1386 84.0624C43.7683 84.7104 42.1054 85.0297 40.1499 85.0202C38.327 85.0115 36.75 84.7097 35.4188 84.115C34.0959 83.5203 33.0558 82.695 32.2986 81.639C31.5496 80.583 31.1288 79.3588 31.0361 77.9663L34.2178 77.9816C34.2961 78.9432 34.6154 79.7402 35.1758 80.3726C35.7445 80.9968 36.4632 81.4643 37.3317 81.7751C38.2086 82.0776 39.1524 82.2313 40.1633 82.2362C41.3399 82.2419 42.3973 82.0564 43.3354 81.6797C44.2736 81.2948 45.0178 80.7598 45.568 80.0747C46.1182 79.3813 46.3955 78.5706 46.4 77.6426C46.4041 76.7975 46.1713 76.1086 45.7015 75.576C45.2318 75.0434 44.6124 74.6096 43.8434 74.2744C43.0744 73.9393 42.2431 73.6453 41.3494 73.3924L38.2217 72.4824C36.2358 71.9011 34.6654 71.0773 33.5105 70.0112C32.3556 68.945 31.7823 67.5543 31.7905 65.8391C31.7974 64.4139 32.1887 63.1729 32.9644 62.116C33.7484 61.0509 34.7964 60.2273 36.1084 59.6454C37.4288 59.0551 38.901 58.7639 40.525 58.7717C42.1656 58.7797 43.6225 59.0808 44.8957 59.6753C46.1689 60.2614 47.176 61.0618 47.9168 62.0762C48.666 63.0907 49.0582 64.2403 49.0934 65.5248L46.1105 65.5104ZM58.3448 84.6605L52.6201 65.5418L55.7024 65.5566L59.7584 80.1928L59.9572 80.1938L64.1043 65.5971L67.2364 65.6122L71.1931 80.1982L71.392 80.1992L75.5886 65.6525L78.6709 65.6673L72.7622 84.73L69.8787 84.7161L65.7733 70.0299L65.475 70.0285L61.2283 84.6744L58.3448 84.6605ZM88.0724 85.2512C86.8626 85.2454 85.7659 85.0122 84.782 84.5518C83.7982 84.083 83.0184 83.4122 82.4426 82.5394C81.8668 81.6583 81.5819 80.5963 81.5879 79.3534C81.5932 78.2597 81.8129 77.3741 82.2471 76.6968C82.6812 76.0111 83.2597 75.4753 83.9825 75.0893C84.7052 74.7034 85.502 74.4172 86.373 74.2308C87.2522 74.0362 88.1355 73.883 89.0226 73.7713C90.1833 73.6277 91.1243 73.5204 91.8456 73.4493C92.5751 73.37 93.1061 73.2358 93.4384 73.0468C93.7791 72.8579 93.9505 72.5273 93.9528 72.055L93.9533 71.9555C93.9592 70.7292 93.6282 69.7747 92.9603 69.0921C92.3007 68.4094 91.2956 68.0648 89.945 68.0583C88.5447 68.0516 87.4454 68.3529 86.647 68.9622C85.8486 69.5715 85.2861 70.2234 84.9596 70.9179L82.1803 69.9101C82.6831 68.7525 83.3503 67.8525 84.182 67.2102C85.022 66.5597 85.9357 66.1084 86.9229 65.8562C87.9185 65.5959 88.8969 65.468 89.8581 65.4727C90.4712 65.4756 91.1752 65.5536 91.9699 65.7066C92.7729 65.8513 93.5462 66.1492 94.2898 66.6002C95.0417 67.0513 95.664 67.7296 96.1568 68.6352C96.6496 69.5407 96.8924 70.7516 96.8851 72.268L96.8244 84.8459L93.8912 84.8318L93.9037 82.2466L93.7545 82.2459C93.5537 82.6592 93.2201 83.1009 92.7538 83.571C92.2875 84.041 91.6683 84.4399 90.8961 84.7677C90.1239 85.0954 89.1827 85.2566 88.0724 85.2512ZM88.5325 82.6185C89.6925 82.624 90.6714 82.4009 91.469 81.949C92.2749 81.4972 92.8826 80.9118 93.2921 80.1929C93.7099 79.474 93.9207 78.7168 93.9245 77.9214L93.9375 75.2367C93.8125 75.3853 93.5384 75.5207 93.1152 75.6429C92.7003 75.757 92.2193 75.8582 91.6719 75.9467C91.133 76.027 90.6065 76.099 90.0924 76.1628C89.5867 76.2184 89.1763 76.2661 88.8612 76.306C88.0985 76.4018 87.3851 76.5599 86.7211 76.7805C86.0655 76.9927 85.5336 77.3175 85.1255 77.7547C84.7257 78.1836 84.524 78.771 84.5204 79.5167C84.5155 80.5359 84.8888 81.3083 85.6403 81.8339C86.4001 82.3513 87.3642 82.6128 88.5325 82.6185ZM102.144 92.0308L102.27 65.7811L105.104 65.7947L105.089 68.8273L105.437 68.829C105.654 68.4986 105.955 68.0775 106.338 67.5656C106.73 67.0455 107.288 66.5841 108.01 66.1816C108.742 65.7708 109.729 65.5684 110.972 65.5744C112.579 65.5822 113.994 65.9909 115.216 66.8005C116.439 67.6101 117.39 68.7541 118.071 70.2323C118.752 71.7105 119.087 73.4522 119.077 75.4573C119.068 77.4791 118.715 79.2299 118.02 80.7098C117.326 82.1813 116.367 83.3202 115.145 84.1263C113.923 84.9242 112.517 85.3193 110.926 85.3116C109.7 85.3057 108.719 85.098 107.983 84.6884C107.248 84.2706 106.683 83.7997 106.287 83.2758C105.892 82.7436 105.588 82.3029 105.374 81.9539L105.125 81.9527L105.077 92.0449L102.144 92.0308ZM105.108 75.3403C105.101 76.782 105.306 78.0549 105.723 79.159C106.14 80.2548 106.754 81.1153 107.563 81.7407C108.372 82.3578 109.365 82.6691 110.541 82.6748C111.767 82.6807 112.792 82.3625 113.616 81.7202C114.447 81.0696 115.073 80.1943 115.493 79.0942C115.921 77.986 116.138 76.7524 116.144 75.3935C116.151 74.0512 115.95 72.8404 115.54 71.7613C115.14 70.6739 114.527 69.8133 113.701 69.1796C112.884 68.5376 111.854 68.2136 110.611 68.2076C109.418 68.2019 108.414 68.4995 107.599 69.1005C106.784 69.6931 106.167 70.527 105.747 71.6022C105.328 72.6691 105.115 73.9151 105.108 75.3403Z" fill="#5ADD77"/>
<path d="M135.284 82.4532L29.0368 83.3574C28.365 83.3631 27.8223 83.8632 27.8309 84.4688L27.9474 92.7262C27.956 93.3318 28.5126 93.8226 29.1844 93.8168L121.584 93.0305L99.9082 118.403C99.2923 119.124 99.8723 120.193 100.895 120.184L111.964 120.09C112.712 120.084 113.41 119.775 113.876 119.234L139.232 89.5494C141.71 86.6379 139.376 82.4184 135.284 82.4532ZM138.505 49.9426L46.1056 50.7289L67.7813 25.3561C68.3971 24.6352 67.8171 23.5665 66.7942 23.5752L55.7251 23.6694C54.977 23.6758 54.279 23.9845 53.8133 24.5253L28.4574 54.21C25.9791 57.1215 28.3138 61.341 32.3902 61.3063L138.653 60.402C139.324 60.3963 139.867 59.8962 139.859 59.2906L139.742 51.0332C139.733 50.4276 139.177 49.9369 138.505 49.9426Z" fill="#5ADD77"/>
</g>
<defs>
<filter id="filter0_d_56_257" x="0.679688" y="0.75" width="166.328" height="150.258" filterUnits="userSpaceOnUse" color-interpolation-filters="sRGB">
<feFlood flood-opacity="0" result="BackgroundImageFix"/>
<feColorMatrix in="SourceAlpha" type="matrix" values="0 0 0 0 0 0 0 0 0 0 0 0 0 0 0 0 0 0 127 0" result="hardAlpha"/>
<feOffset dy="4"/>
<feGaussianBlur stdDeviation="2"/>
<feComposite in2="hardAlpha" operator="out"/>
<feColorMatrix type="matrix" values="0 0 0 0 0 0 0 0 0 0 0 0 0 0 0 0 0 0 0.25 0"/>
<feBlend mode="normal" in2="BackgroundImageFix" result="effect1_dropShadow_56_257"/>
<feBlend mode="normal" in="SourceGraphic" in2="effect1_dropShadow_56_257" result="shape"/>
</filter>
</defs>
</svg>